<?xml version="1.0" encoding="utf-8"?>
<!-- Generator: Adobe Adobe Illustrator 24.2.0, SVG Export Plug-In . SVG Version: 6.00 Build 0)  -->
<svg version="1.1" id="Layer_3" xmlns="http://www.w3.org/2000/svg" xmlns:xlink="http://www.w3.org/1999/xlink" x="0px" y="0px"
	 width="1080px" height="1080px" viewBox="0 0 1080 1080" style="enable-background:new 0 0 1080 1080;" xml:space="preserve">
<style type="text/css">
	.st0{fill:#FFD503;}
	.st1{fill:none;stroke:#FFC400;stroke-width:4;stroke-linecap:round;stroke-miterlimit:10;}
	.st2{fill:#FFF0A6;}
</style>
<path id="Foot" class="st0" d="M658.4,388.14c2.54-19.53,1.97-41.27,9.48-59.67c9.75-26.2,36.46-29.47,55.71-17.15
	c40.83,35.44-7.63,123.36-11.17,178.52c-0.52,3.74-1.96,11.18-2.2,14.95c-1.12,7.43-3.22,18.66,8.12,13.84
	c4.37-5.04,4.1-13.88,3.99-20.21c3.27-56.98,7.07-100.85,42.73-97.04c52.9,8.62,17.38,119.8,16,156.15
	c-0.37,45.23,8.6,93.68-7.07,137.32c-17.73,63.88-26.46,145.49-38.19,208.43L332.32,905c0,0-2.37-56.12-1.6-74.81
	c-2.32-109.34-42.91-221.2-44.73-330.2c5.74-40.17,24.47-87.98,23.69-128.98c-6.29-28.97-10.58-46.64-10.31-62.47
	c11.6-53.08,32.68-106.13,71-125.99c22.99-11.92,64.83-9.91,89.28,7.27c37.83,22.98,13.26,117.53-14.58,177.97
	c-6.99,23.48-5.73,40.32,22.01,26.06c45.75-50.61-19.49-210.07,72.91-200.41c65.67,2.24,36.71,111.95,33.72,136.7
	c-0.68,20.95-6.4,49.1-6.21,65.36c0.08,7.39,1.89,11.72,7.02,9.2c7.69-31.03,7.79-65.62,8.84-97.8c0.38-11.5-1.27-24.44,2.13-35.57
	c8.8-41.57,57.74-48.83,79.01-7.44c10.43,22.54-0.47,47.98-2.31,71.23c-2.15,34.78-12.79,68.79-16.86,103.22
	c-0.23,3.23-2.46,10.86,0,12.94c9.43-1.79,7.32-17.87,9.17-25.29C655.53,417.92,657.43,396.82,658.4,388.14z"/>
<path class="st1" d="M605.87,361.65c6.3-0.58,13.39,0.55,19.3,3.1"/>
<path class="st1" d="M348.19,348.7c18.74-1.49,37.69-0.25,56.08,3.68"/>
<path class="st1" d="M603.15,369.53c7.51-2.16,15.78-0.78,22.5,3.77"/>
<path class="st1" d="M674.36,429.97c7.65-1.58,15.79,0.44,22.15,5.48"/>
<path class="st1" d="M677.67,422.33c6.32-0.1,13.3,1.58,19.01,4.57"/>
<path class="st1" d="M773.19,486.73c-1.35,8.23-20.47,7.21-27.98,2.36"/>
<path class="st1" d="M354.07,342.22c15.55-2.05,31.45-1.4,46.79,1.89"/>
<path class="st1" d="M510.35,331.07c10.33-2.25,22.05-1.39,31.9,2.36"/>
<path class="st1" d="M512.62,323.73c8.99-2.41,18.99-1.61,27.38,2.18"/>
<path class="st2" d="M533.25,239.84c-4.03-0.02-8.11-0.04-12.01-1.05c-3.9-1.02-8.36-3.99-9.85-6.56c-1.62-2.8-2.24-9.58-1.93-12.8
	c0.2-2.12,0.81-6.49,1.79-8.33c1.55-2.93,5.76-5.82,10.26-6.64c8.58-1.56,17.49-1.3,25.97,0.76c5.64,1.37,11.54,3.91,14.27,9.05
	c3.46,6.5,1.8,14.68-1.06,21.47c-2.6,6.18-7.07,6.8-12.62,6.13C542.45,241.19,536.88,239.85,533.25,239.84z"/>
<path class="st2" d="M353.63,256.64c0.44-10.49,0.89-20.98,1.33-31.47c2.65-13.9,15.61-23.93,29.25-27.4
	c13.64-3.47,27.99-1.65,41.94,0.19c8.44,1.11,17.48,2.5,23.65,8.4c5.58,5.33,7.71,13.52,7.38,21.26s-2.83,15.18-5.31,22.51
	c-2.72,8.04-5.86,16.66-12.87,21.39c-7.16,4.83-16.5,4.37-25.1,3.72c-10.99-0.83-21.99-1.66-32.98-2.49
	c-5.92-0.45-11.98-0.93-17.38-3.41S353.41,261.92,353.63,256.64z"/>
<path class="st2" d="M612.55,248.62c6.33-2.91,13.64-2.81,20.41-1.18c6.74,1.63,13.85,5.04,16.35,11.54c1.5,3.9,1.07,8.25,0.62,12.4
	c-0.34,3.12-0.88,6.6-3.37,8.49c-2.29,1.74-5.46,1.52-8.31,1.21c-8.3-0.89-16.6-1.85-24.89-2.86c-2.34-0.29-4.8-0.62-6.7-2.02
	c-2.09-1.54-3.18-4.15-3.43-6.74C601.72,254.06,604.95,252.11,612.55,248.62z"/>
<path class="st2" d="M683.29,336.76c-1.67-2.27-1.64-6.71-1.46-10.6s2.17-6.73,5.69-9.02c4.9-3.19,10.11-4.29,15.51-3.82
	c4,0.35,7.94,1.51,11.58,3.07c3.64,1.56,6.94,4.03,8.55,7.33c1.69,3.46,1.36,7.39,1.01,11.15c-0.29,3.07-1.01,6.7-4.17,7.95
	c-1.7,0.67-3.66,0.42-5.49,0.16c-7.5-1.08-14.99-2.16-22.49-3.23C687.5,339.09,684.81,338.83,683.29,336.76z"/>
<path class="st2" d="M757.71,433.36c0,0-11.88-2.98-12.47-9.72c-1.02-16.61,20.9-19.9,29.27-9.16c3.43,5.07,11.49,18.95,0.9,23.41
	C770.28,438.23,757.71,433.36,757.71,433.36z"/>
</svg>
