<?xml version="1.0" encoding="UTF-8"?>
<svg id="Layer_1" xmlns="http://www.w3.org/2000/svg" version="1.1" viewBox="0 0 768 520.71">
  <!-- Generator: Adobe Illustrator 29.8.2, SVG Export Plug-In . SVG Version: 2.1.1 Build 3)  -->
  <defs>
    <style>
      .st0, .st1, .st2, .st3, .st4, .st5 {
        stroke-miterlimit: 10;
      }

      .st0, .st1, .st4, .st5 {
        stroke-width: 3px;
      }

      .st0, .st6 {
        fill: #f4f4f4;
      }

      .st0, .st4, .st5 {
        stroke: #2b2d30;
      }

      .st7 {
        fill: #f5e4d0;
      }

      .st1 {
        fill: #2b2d30;
        stroke: #f4f4f4;
      }

      .st2 {
        fill: #fff;
      }

      .st2, .st3 {
        stroke: #000;
        stroke-width: 2px;
      }

      .st3, .st4, .st5 {
        fill: none;
      }

      .st8 {
        fill: #656668;
      }

      .st5 {
        stroke-dasharray: 12.21 12.21;
      }
    </style>
  </defs>
  <rect class="st8" x="-1" y="-265.02" width="768" height="1024"/>
  <polygon class="st7" points="748.31 383.74 203.45 383.42 375.09 241.39 817.78 240.4 748.31 383.74"/>
  <g>
    <line class="st2" x1="407.98" y1="215.17" x2="407.98" y2="89.56"/>
    <path class="st3" d="M767.33,215.17h-359.34L121.4,449.32v-142.85L405.61,91.36c.76-.58.36-1.8-.6-1.8H105.55L-6.65,159.08"/>
    <line class="st3" x1="121.4" y1="306.47" x2="-.67" y2="306.47"/>
    <line class="st3" x1="121.4" y1="449.32" x2="-.67" y2="449.32"/>
  </g>
  <g>
    <path class="st0" d="M277.97,63.5c2.47,51.04,14.68,104.45,2.54,155.18-13.59,45.6-24.51,109.74,44.66,113.63,76.42,4.29,83.71-20.6,114.47-15.64,37.84,4.34,69.4,19.21,123.82,16.7,63.57-2.94,61.31-13.03,63.63-11.01,8.62,7.51,16.12,8.21,28.08,8.02,33.59-.54,37.48-12.44,38.75-14.52.67-1.09,6.51-15.42-10.71-20.43-27.18-7.92-40.91-19.77-48.92-23.73-12.26-6.05-28.04-5.84-40.13-12.2-46.67-24.58-86.36-55.62-138.38-65.02-60.58-10.95-50.46-70.18-43.71-130.96"/>
    <path class="st1" d="M331.28,199.77c-4.34,1.02-22.14,48.82-11,62.44,15.22,18.6,54.83-.65,57.75-3.34,5.36-4.95-41.3,13-50.6-.36-11.82-17,8.46-59.82,3.85-58.73Z"/>
  </g>
  <path class="st4" d="M660.02,286.51s-2.15,7.23-1.94,9.9c.31,3.94,3.44,7.19,16.57,8.64,6.7.74,16.21.89,17.44-4.67"/>
  <g>
    <line class="st6" x1="650.96" y1="383.74" x2="744.29" y2="240.73"/>
    <g>
      <line class="st4" x1="650.96" y1="383.74" x2="654.24" y2="378.72"/>
      <line class="st5" x1="660.91" y1="368.49" x2="737.67" y2="250.87"/>
      <line class="st4" x1="741.01" y1="245.75" x2="744.29" y2="240.73"/>
    </g>
  </g>
</svg>