<?xml version="1.0" encoding="UTF-8"?>
<svg id="Layer_1" xmlns="http://www.w3.org/2000/svg" version="1.1" xmlns:xlink="http://www.w3.org/1999/xlink" viewBox="0 0 1080 1080">
  <!-- Generator: Adobe Illustrator 29.8.2, SVG Export Plug-In . SVG Version: 2.1.1 Build 3)  -->
  <defs>
    <style>
      .st0 {
        fill: url(#linear-gradient2);
      }

      .st1 {
        fill: url(#linear-gradient1);
      }

      .st2 {
        fill: url(#linear-gradient);
      }

      .st3 {
        fill: #ffd503;
      }
    </style>
    <linearGradient id="linear-gradient" x1="541.46" y1="308.19" x2="539.84" y2="903.17" gradientUnits="userSpaceOnUse">
      <stop offset="0" stop-color="#ffd503"/>
      <stop offset=".11" stop-color="#ffd917"/>
      <stop offset=".25" stop-color="#ffde2a"/>
      <stop offset=".39" stop-color="#ffe135"/>
      <stop offset=".54" stop-color="#ffe239"/>
      <stop offset=".75" stop-color="#ffe136"/>
      <stop offset=".84" stop-color="#ffdf2f"/>
      <stop offset=".91" stop-color="#ffdc23"/>
      <stop offset=".97" stop-color="#ffd811"/>
      <stop offset="1" stop-color="#ffd503"/>
    </linearGradient>
    <linearGradient id="linear-gradient1" x1="505.74" y1="548.56" x2="525.89" y2="549.53" gradientUnits="userSpaceOnUse">
      <stop offset=".38" stop-color="#ffd503"/>
      <stop offset=".7" stop-color="#ffc800"/>
      <stop offset="1" stop-color="#ffc400"/>
    </linearGradient>
    <linearGradient id="linear-gradient2" x1="292.76" y1="560.64" x2="313.28" y2="562.64" gradientTransform="translate(872.05) rotate(-180) scale(1 -1)" xlink:href="#linear-gradient1"/>
  </defs>
  <path class="st3" d="M675.4,216.21c-10.27,85.12-37.87,206.36-37.43,297.9.06,11.99,4.58,34.41,9.97,46.91,8.69,20.22,16.2,37.43,15.96,56.02-.19,14.66-9.6,30.44-12.18,41.93-2.11,9.49-2.29,30.36-2.3,34.14,4.02,21.94,8.15,44.22,11.87,65.09,6.82,40.95,14.18,86.57-2.64,120.9-13.97,25.31-42.78,34.95-70.26,41.52-30.2,7.11-62.49,6.82-92.75-.08-19.9-4.29-43.05-12.96-56.33-24.16-43.78-36.7-28.71-106.33-19.09-157.4,2.37-12.29,4.82-24.99,7.23-37.51l-.02.02s-6.87-43.62-8.81-57.81c-2.37-17.28-9.65-73.92-5.67-90.91,4.36-18.66,23.11-46.23,26.28-62.99,9-47.64-11.22-130.44-16.63-193.2-2.42-28.61-4.78-54.38-6.28-74.6-1.41-21.4-9.34-54.98,9-62.92,13.89-6.02,40.11-3.21,59.67-4.47,39.72-1.1,83.96.24,123.57.21,15.39.17,47.24-.05,60.38,6.07,13.87,6.47,7.74,43.19,6.47,55.33Z"/>
  <path class="st2" d="M502.05,299.06s25.91,102.39,27.06,168.5c.81,46.61-.49,101.13-6.22,131.5-6.68,35.37-33.41,77.76-51.41,99.09-15.68,18.59-43.99,55.98-56.95,75.86-14.54,22.3-30.34,66.76-11.63,104.71,17.13,34.76,81.5,47.12,140.46,47.12,75.86,0,109.95-18.08,131.26-45.5,28.61-36.8-6.55-96.82-13.87-112.12-10.08-21.05-46.66-55.45-59.39-75.01-13.68-21.02-33.42-68.02-38.69-92.53-7.06-32.81-8.37-81.89-8.49-133.97-.16-66.17,28.25-167.64,28.25-167.64"/>
  <path class="st1" d="M425.56,752.83s47.06-73.2,67.96-111.13c14.61-26.52,17.86-63.31,21.1-154.22,2.56-71.64-3.1-146.77-3.1-146.77,0,0,10.73,58.31,12.12,67.4,6.65,43.34,4.4,66.49,4.43,75.67.04,13.12.26,39.37,0,52.49-.29,14.94-1.77,44.91-4.63,59.57-2.58,13.18-12.26,38.49-18.08,50.59-5.92,12.31-20.33,35.81-29.34,46.07-18,20.49-50.47,60.31-50.47,60.31Z"/>
  <path class="st0" d="M660.83,762.94s-47.06-73.2-67.96-111.13c-14.61-26.52-17.86-63.31-21.1-154.22-2.56-71.64,3.1-146.77,3.1-146.77,0,0-15.73,58.35-17.13,67.45-6.65,43.34-3.34,66.85-3.37,76.04-.04,13.12,1.5,39.03,1.76,52.15.29,14.94,3.96,44.84,6.82,59.5,2.58,13.18,12.26,38.49,18.08,50.59,5.92,12.31,20.33,35.81,29.34,46.07,18,20.49,50.47,60.31,50.47,60.31Z"/>
</svg>