<?xml version="1.0" encoding="UTF-8"?>
<svg id="Layer_1" xmlns="http://www.w3.org/2000/svg" version="1.1" viewBox="0 0 1080 1080">
  <!-- Generator: Adobe Illustrator 29.8.2, SVG Export Plug-In . SVG Version: 2.1.1 Build 3)  -->
  <defs>
    <style>
      .st0 {
        opacity: .9;
      }

      .st1 {
        fill: #f5e4d0;
        stroke: #000;
        stroke-width: 3px;
      }

      .st1, .st2 {
        stroke-miterlimit: 10;
      }

      .st3 {
        fill: #fff0a6;
      }

      .st4 {
        fill: #ffc400;
      }

      .st2 {
        fill: none;
        stroke: #ffc400;
        stroke-linecap: round;
        stroke-width: 2px;
      }

      .st5 {
        fill: #ffd503;
      }
    </style>
  </defs>
  <path class="st1" d="M346.08,585.75"/>
  <g class="st0">
    <path class="st5" d="M177.4,274.56c4.57,94.46,34.97,201.67-1.98,290.87-35.37,85.37-25.61,188.47,89.35,206.67,70.23,11.12,151.99-12.42,203.5-23.35,19.09-4.05,70.03-9.49,114.65-2.19,48.13,7.87,96.1,26.66,122.91,27.5,113.37,3.53,113.48-24.12,117.78-20.38,15.96,13.89,29.84,15.2,51.97,14.84,62.17-1,69.36-23.02,71.72-26.88,1.24-2.02,12.04-28.54-19.82-37.82-50.31-14.65-75.71-36.6-90.55-43.92-22.7-11.2-51.92-10.77-74.27-22.58-97.55-51.57-146.85-65.37-231.33-90.27-93.08-27.43-105.89-144.95-96.17-272.48"/>
    <path class="st4" d="M251.56,552.02c-7.58,3.26-17.44,77.09,7.26,98.32,33.74,29.01,99.74-18.84,104.18-24.68,8.17-10.75-65.38,32.89-92.34,15.63-32.28-20.66-11.04-92.73-19.1-89.27Z"/>
    <path class="st3" d="M938.91,712.89c-2.27,10.3-19.86,10.16-32.27,8.8-24.3-2.67-30.09-8.7-30.67-15.99-.39-4.94,3.59-18.33,3.59-18.33l22.12,9.49s18.25,5.5,24.16,7.83c2.07.81,6.1,2.71,8,3.84,1.55.92,5.06,4.37,5.06,4.37Z"/>
  </g>
  <path class="st2" d="M794.78,666.26s-.23,4.88-3.25,8.95"/>
  <path class="st2" d="M789.76,664.04c-.23,1.31-.99,8.24-7.01,13.39"/>
</svg>