<?xml version="1.0" encoding="utf-8"?>
<!-- Generator: Adobe Adobe Illustrator 24.2.0, SVG Export Plug-In . SVG Version: 6.00 Build 0)  -->
<svg version="1.1" id="Layer_3" xmlns="http://www.w3.org/2000/svg" xmlns:xlink="http://www.w3.org/1999/xlink" x="0px" y="0px"
	 width="1080px" height="1080px" viewBox="0 0 1080 1080" style="enable-background:new 0 0 1080 1080;" xml:space="preserve">
<style type="text/css">
	.st0{fill:#FFD503;}
	.st1{fill:none;stroke:#FFC400;stroke-width:4;stroke-linecap:round;stroke-miterlimit:10;}
	.st2{fill:#FFF0A6;}
</style>
<path id="Foot" class="st0" d="M654.27,329.33c2.42-19.53,1.88-41.27,9.04-59.67c9.29-26.2,34.74-29.47,53.07-17.15
	c38.9,35.44-7.27,123.36-10.64,178.52c-0.49,3.74-1.87,11.18-2.1,14.95c-1.07,7.43-0.07,6.66,10.74,1.84
	c4.17-5.04,3.05-17.34,2.95-23.67c3.11-56.98,6.73-100.85,40.71-97.04c50.4,8.62,17.41,123.26,16.1,159.61
	c-0.35,45.23,3.19,137.49-11.73,181.12c-16.89,63.88-26.03,172.49-37.2,235.43L340.78,905c0,0-2.26-56.12-1.52-74.81
	c-2.21-109.34-40.89-221.2-42.61-330.2c5.47-40.17,23.31-87.98,22.57-128.98c-5.99-28.97-10.08-46.64-9.82-62.47
	c11.05-53.08,31.14-106.13,67.65-125.99c21.91-11.92,61.77-9.91,85.06,7.27c36.04,22.98,12.63,117.53-13.9,177.97
	c-6.66,23.48-5.46,40.32,20.97,26.06c43.59-50.61-20.75-214.07,67.29-204.41c62.56,2.24,34.97,111.95,32.12,136.7
	c-0.65,20.95-6.1,49.1-5.92,65.36c0.08,7.39,1.8,11.72,6.69,9.2c7.32-31.03,7.43-65.62,8.43-97.8c0.36-11.5,0.79-56.24,4.03-67.38
	c8.38-41.57,55.01-48.83,75.27-7.44c9.94,22.54-0.45,47.98-2.2,71.23c-2.04,34.78-9.19,57.79-13.07,92.22
	c-0.21,3.23-2.35,19.77,0,21.85c8.98-1.79,6.97-38.78,8.74-46.19C651.54,359.12,653.35,338.02,654.27,329.33z"/>
<path class="st1" d="M603.76,325.64c6-0.58,12.75,0.55,18.38,3.1"/>
<path class="st1" d="M357.25,348.7c17.85-1.49,35.91-0.25,53.43,3.68"/>
<path class="st1" d="M601.17,333.52c7.16-2.16,15.03-0.78,21.44,3.77"/>
<path class="st1" d="M670.38,369.84c7.29-1.58,15.04,0.44,21.11,5.48"/>
<path class="st1" d="M673.54,362.19c6.03-0.1,12.68,1.58,18.11,4.57"/>
<path class="st1" d="M767.41,413.37c-1.28,8.23-19.5,7.21-26.66,2.36"/>
<path class="st1" d="M362.85,342.22c14.82-2.05,29.96-1.4,44.57,1.89"/>
<path class="st1" d="M510.91,326.58c9.84-2.25,21-1.39,30.39,2.36"/>
<path class="st1" d="M513.07,319.24c8.57-2.41,18.09-1.61,26.08,2.18"/>
<path class="st2" d="M532.72,235.36c-3.84-0.02-7.73-0.04-11.45-1.05c-3.72-1.02-7.97-3.99-9.38-6.56c-1.54-2.8-2.13-9.58-1.84-12.8
	c0.2-2.12,0.77-6.49,1.7-8.33c1.48-2.93,5.49-5.82,9.78-6.64c8.18-1.56,16.66-1.3,24.74,0.76c5.37,1.37,10.99,3.91,13.6,9.05
	c3.29,6.5,1.72,14.68-1.01,21.47c-2.48,6.18-6.74,6.8-12.02,6.13C541.48,236.71,536.18,235.37,532.72,235.36z"/>
<path class="st2" d="M362.44,256.64c0.42-10.49,0.85-20.98,1.27-31.47c2.53-13.9,14.87-23.93,27.87-27.4
	c13-3.47,26.67-1.65,39.96,0.19c8.04,1.11,16.65,2.5,22.53,8.4c5.32,5.33,7.35,13.52,7.03,21.26s-2.7,15.18-5.06,22.51
	c-2.59,8.04-5.58,16.66-12.26,21.39c-6.82,4.83-15.72,4.37-23.91,3.72c-10.47-0.83-20.95-1.66-31.42-2.49
	c-5.64-0.45-11.42-0.93-16.56-3.41S362.22,261.92,362.44,256.64z"/>
<path class="st2" d="M610.13,212.61c6.03-2.91,13-2.81,19.45-1.18c6.42,1.63,13.2,5.04,15.58,11.54c1.43,3.9,1.02,8.25,0.59,12.4
	c-0.32,3.12-0.83,6.6-3.21,8.49c-2.19,1.74-5.2,1.52-7.92,1.21c-7.91-0.89-15.82-1.85-23.72-2.86c-2.23-0.29-4.57-0.62-6.38-2.02
	c-1.99-1.54-3.03-4.15-3.27-6.74C599.81,218.05,602.89,216.11,610.13,212.61z"/>
<path class="st2" d="M678.89,276.62c-1.59-2.27-1.56-6.71-1.39-10.6c0.17-3.89,2.07-6.73,5.43-9.02c4.67-3.19,9.63-4.29,14.78-3.82
	c3.81,0.35,7.57,1.51,11.03,3.07c3.46,1.56,6.61,4.03,8.14,7.33c1.61,3.46,1.3,7.39,0.96,11.15c-0.28,3.07-0.96,6.7-3.97,7.95
	c-1.62,0.67-3.48,0.42-5.23,0.16c-7.14-1.08-14.28-2.16-21.43-3.23C682.91,278.95,680.35,278.69,678.89,276.62z"/>
<path class="st2" d="M752.66,360c0,0-11.32-2.98-11.88-9.72c-0.98-16.61,19.91-19.9,27.88-9.16c3.27,5.07,10.95,18.95,0.85,23.41
	C764.65,364.86,752.66,360,752.66,360z"/>
</svg>
